<?xml version="1.0" standalone="no"?>
<!DOCTYPE svg PUBLIC "-//W3C//DTD SVG 1.1//EN" "http://www.w3.org/Graphics/SVG/1.1/DTD/svg11.dtd">
<svg xmlns="http://www.w3.org/2000/svg" id="Calque_2" data-name="Calque 2" viewBox="0 0 512 512.08" width="512" height="512.0800170898438">
  <defs>
    <style>
      .cls-1, .cls-2 {
        fill: #fff;
      }

      .cls-1, .cls-2, .cls-3, .cls-4 {
        stroke-width: 0px;
      }

      .cls-1, .cls-3 {
        fill-rule: evenodd;
      }

      .cls-3, .cls-4 {
        fill: #f60;
      }
    </style>
  </defs>
  <g id="Layer_1" data-name="Layer 1">
    <g>
      <path class="cls-4" d="M206,512.08c90.27,0,140.45,0,173.22-32.78,32.78-32.78,32.78-82.96,32.78-173.22s0-140.45-32.78-173.22c-32.78-32.78-82.96-32.78-173.22-32.78s-140.45,0-173.22,32.78C0,165.63,0,215.81,0,306.08s0,140.45,32.78,173.22c32.78,32.78,82.96,32.78,173.22,32.78Z"/>
      <path class="cls-2" d="M190.23,370.1h-73.45l-13.65,33.75h-50.12l76.67-173.69h48.39l76.92,173.69h-51.11l-13.65-33.75ZM175.84,333.87l-22.33-55.58-22.33,55.58h44.66Z"/>
      <path class="cls-1" d="M372.7,247.64c-.3-1.81-1.86-3.14-3.7-3.14s-3.4,1.33-3.7,3.14l-.03.18c-1.31,7.93-7.52,14.15-15.45,15.45l-.18.03c-1.81.3-3.14,1.86-3.14,3.7s1.33,3.4,3.14,3.7l.18.03c7.93,1.31,14.15,7.52,15.45,15.45l.03.18c.3,1.81,1.86,3.14,3.7,3.14s3.4-1.33,3.7-3.14l.03-.18c1.31-7.93,7.52-14.15,15.45-15.45l.18-.03c1.81-.3,3.14-1.86,3.14-3.7s-1.33-3.4-3.14-3.7l-.18-.03c-7.93-1.31-14.15-7.52-15.45-15.45l-.03-.18Z"/>
      <path class="cls-3" d="M449.5,0c3.06,0,5.67,2.22,6.17,5.23l3.58,21.76c2.18,13.22,12.54,23.58,25.76,25.76l21.76,3.58c3.02.5,5.23,3.11,5.23,6.17s-2.22,5.67-5.23,6.17l-21.76,3.58c-13.22,2.18-23.58,12.54-25.76,25.76l-3.58,21.76c-.5,3.02-3.11,5.23-6.17,5.23s-5.67-2.22-6.17-5.23l-3.58-21.76c-2.18-13.22-12.54-23.58-25.76-25.76l-21.76-3.58c-3.02-.5-5.23-3.11-5.23-6.17s2.22-5.67,5.23-6.17l21.76-3.58c13.22-2.18,23.58-12.54,25.76-25.76l3.58-21.76c.5-3.02,3.11-5.23,6.17-5.23Z"/>
      <path class="cls-2" d="M269.44,230.15h49.13v173.69h-49.13v-173.69Z"/>
      <path class="cls-1" d="M294,139.5c2.19,0,4.07,1.59,4.42,3.75l.83,5.02c1.56,9.48,8.99,16.91,18.47,18.47l5.02.83c2.17.36,3.75,2.23,3.75,4.42s-1.59,4.07-3.75,4.42l-5.02.83c-9.48,1.56-16.91,8.99-18.47,18.47l-.83,5.02c-.36,2.17-2.23,3.75-4.42,3.75s-4.07-1.59-4.42-3.75l-.83-5.02c-1.56-9.48-8.99-16.91-18.47-18.47l-5.02-.83c-2.17-.36-3.75-2.23-3.75-4.42s1.59-4.07,3.75-4.42l5.02-.83c9.48-1.56,16.91-8.99,18.47-18.47l.83-5.02c.36-2.17,2.23-3.75,4.42-3.75Z"/>
    </g>
  </g>
</svg>